{
  "asset": {
    "generator": "Khronos glTF Blender I/O v3.2.43",
    "version": "2.0"
  },
  "scene": 0,
  "scenes": [
    {
      "name": "Scene",
      "nodes": [
        0
      ]
    }
  ],
  "nodes": [
    {
      "mesh": 0,
      "name": "sphere_gltf"
    }
  ],
  "materials": [
    {
      "doubleSided": true,
      "name": "worn_rock_natural_01",
      "normalTexture": {
        "index": 0
      },
      "pbrMetallicRoughness": {
        "baseColorTexture": {
          "index": 1
        },
        "metallicFactor": 0,
        "metallicRoughnessTexture": {
          "index": 2
        }
      }
    }
  ],
  "meshes": [
    {
      "name": "Sphere.001",
      "primitives": [
        {
          "attributes": {
            "POSITION": 0,
            "NORMAL": 1,
            "TEXCOORD_0": 2
          },
          "indices": 3,
          "material": 0
        }
      ]
    }
  ],
  "textures": [
    {
      "sampler": 0,
      "source": 0
    },
    {
      "sampler": 0,
      "source": 1
    },
    {
      "sampler": 0,
      "source": 2
    }
  ],
  "images": [
    {
      "mimeType": "image/jpeg",
      "name": "worn_rock_natural_01_nor_gl_8k",
      "uri": "textures/worn_rock_natural_01_nor_gl_1k.jpg"
    },
    {
      "mimeType": "image/jpeg",
      "name": "worn_rock_natural_01_diff_8k",
      "uri": "textures/worn_rock_natural_01_diff_1k.jpg"
    },
    {
      "mimeType": "image/jpeg",
      "name": "worn_rock_natural_01_rough_8k",
      "uri": "textures/worn_rock_natural_01_rough_1k.jpg"
    }
  ],
  "accessors": [
    {
      "bufferView": 0,
      "componentType": 5126,
      "count": 53893,
      "max": [
        0.9947409629821777,
        1.0129214525222778,
        1.0198482275009155
      ],
      "min": [
        -0.9947410225868225,
        -1.0121049880981445,
        -1.0198506116867065
      ],
      "type": "VEC3"
    },
    {
      "bufferView": 1,
      "componentType": 5126,
      "count": 53893,
      "type": "VEC3"
    },
    {
      "bufferView": 2,
      "componentType": 5126,
      "count": 53893,
      "type": "VEC2"
    },
    {
      "bufferView": 3,
      "componentType": 5123,
      "count": 322170,
      "type": "SCALAR"
    }
  ],
  "bufferViews": [
    {
      "buffer": 0,
      "byteLength": 646716,
      "byteOffset": 0
    },
    {
      "buffer": 0,
      "byteLength": 646716,
      "byteOffset": 646716
    },
    {
      "buffer": 0,
      "byteLength": 431144,
      "byteOffset": 1293432
    },
    {
      "buffer": 0,
      "byteLength": 644340,
      "byteOffset": 1724576
    }
  ],
  "samplers": [
    {
      "magFilter": 9729,
      "minFilter": 9987
    }
  ],
  "buffers": [
    {
      "byteLength": 2368916,
      "uri": "worn_rock_natural_01.bin"
    }
  ]
}